<?xml version="1.0" encoding="UTF-8"?>
<svg width="84px" height="23px" viewBox="0 0 84 23" version="1.1" xmlns="http://www.w3.org/2000/svg" xmlns:xlink="http://www.w3.org/1999/xlink">
    <title>C7766E39-82BF-4F66-B106-2ABC34C47F16</title>
    <defs>
        <polygon id="path-1" points="0.0306861076 0.0828216374 22.7731478 0.0828216374 22.7731478 12.0937393 0.0306861076 12.0937393"></polygon>
        <polygon id="path-3" points="0 0.0585525926 7.18505226 0.0585525926 7.18505226 8.14814815 0 8.14814815"></polygon>
        <polygon id="path-5" points="0.136215387 0.00979814815 5.64149467 0.00979814815 5.64149467 10.5925926 0.136215387 10.5925926"></polygon>
        <polygon id="path-7" points="0 0 2.44117647 0 2.44117647 2.44444444 0 2.44444444"></polygon>
    </defs>
    <g id="Page-1" stroke="none" stroke-width="1" fill="none" fill-rule="evenodd">
        <g id="MOB-NEW-WITH-ADS" transform="translate(-72.000000, -367.000000)">
            <g id="Footer" transform="translate(0.000000, 325.000000)">
                <g id="CM-logo" transform="translate(72.000000, 42.000000)">
                    <g id="Group-3" transform="translate(28.480392, 0.000000)">
                        <mask id="mask-2" fill="white">
                            <use xlink:href="#path-1"></use>
                        </mask>
                        <g id="Clip-2"></g>
                        <path d="M19.9506399,8.01705409 L19.9506399,7.72227339 C20.0710251,7.66534357 20.1550524,7.54553363 20.1550524,7.40465643 C20.1550524,7.24013889 20.0408076,7.10826754 19.8879427,7.06806287 L19.8879427,6.26445175 L22.7731478,5.01328216 L11.4013514,0.0827412281 L0.0306861076,5.01328216 L6.4217669,7.78467105 L5.9576779,10.6162061 C5.9576779,11.3207529 6.59176051,11.3027412 7.60299622,11.110402 C8.61326238,10.917098 9.60833901,10.5476974 11.4044216,10.5476974 C13.1993731,10.5476974 14.3421438,10.917098 15.301832,11.110402 C16.2615202,11.3027412 16.8459944,11.3207529 16.8459944,10.6162061 L16.3819054,7.78467105 L19.7040523,6.34437865 L19.7040523,7.06951023 C19.5547423,7.1113231 19.4429214,7.24222953 19.4429214,7.40465643 C19.4429214,7.54714181 19.5290493,7.66888158 19.651212,7.72484649 L19.651212,8.01705409 C19.5898075,8.06642544 19.5654073,8.13477339 19.5654073,8.16243421 C19.5654073,8.20376462 19.4167437,9.4084576 19.259031,11.797902 C19.259031,12.2004313 20.3389428,12.1841886 20.3389428,11.797902 C20.1700804,9.39430556 20.0346672,8.20376462 20.0346672,8.16243421 C20.0346672,8.13477339 20.0113981,8.06642544 19.9506399,8.01705409" id="Fill-1" fill="#FFFFFF" mask="url(#mask-2)"></path>
                    </g>
                    <g id="Group-6" transform="translate(0.000000, 13.851852)">
                        <mask id="mask-4" fill="white">
                            <use xlink:href="#path-3"></use>
                        </mask>
                        <g id="Clip-5"></g>
                        <path d="M4.09740078,0.0585525926 C5.29015961,0.0585525926 6.21292431,0.539945185 6.94413804,1.42630074 C7.07856549,1.59855259 7.03983216,1.82996 6.84730471,1.96570815 L5.96343608,2.81213778 C5.79011255,2.96613778 5.61711451,2.87031556 5.48268706,2.75510074 C5.17509882,2.40831556 4.69321059,2.13812296 4.15533804,2.13812296 C3.11669882,2.13812296 2.27009882,3.02431556 2.27009882,4.10329333 C2.27009882,5.20068593 3.09716941,6.06764889 4.13613412,6.06764889 C4.96206549,6.06764889 5.3287302,5.66382667 5.67407529,5.33643407 C5.80964196,5.20068593 6.00200667,5.16190074 6.15580078,5.27809333 L6.98270863,5.99007852 C7.17539882,6.14521926 7.25172627,6.33670074 7.11729882,6.52964889 C6.46241255,7.55044889 5.44379098,8.14819704 4.07819686,8.14819704 C1.90457333,8.14819704 -3.25490196e-05,6.41427111 -3.25490196e-05,4.10329333 C-3.25490196e-05,1.82996 1.94346941,0.0585525926 4.09740078,0.0585525926" id="Fill-4" fill="#FFFFFF" mask="url(#mask-4)"></path>
                    </g>
                    <path d="M8.95098039,10.9638191 C8.95098039,10.7683758 9.13096171,10.5925926 9.33024487,10.5925926 L11.0118765,10.5925926 C11.2111597,10.5925926 11.3921569,10.7683758 11.3921569,10.9638191 L11.3921569,21.6287735 C11.3921569,21.8240515 11.2111597,22 11.0118765,22 L9.33024487,22 C9.13096171,22 8.95098039,21.8240515 8.95098039,21.6287735 L8.95098039,10.9638191 Z" id="Fill-7" fill="#FFFFFF"></path>
                    <path d="M16.1128227,20.3511986 C16.7233894,20.3511986 17.314573,19.8264383 17.4287716,19.5941781 L17.4287716,18.52693 C17.4287716,18.52693 16.9133435,18.293685 16.3604414,18.293685 C15.6164546,18.293685 15.1191173,18.7209453 15.1191173,19.3415643 C15.1191173,19.9237742 15.5205084,20.3511986 16.1128227,20.3511986 M16.0743796,16.8976615 C16.837588,16.8976615 17.4673762,17.1103889 17.4673762,17.1103889 C17.4865978,16.1211081 17.1811529,15.7727998 16.47464,15.7727998 C15.7690963,15.7727998 14.7753909,15.9279135 14.3366874,16.0636585 C14.0698472,16.1406409 13.9354579,15.9659944 13.8979839,15.7143654 L13.7251516,14.7053876 C13.6684561,14.4137082 13.8210978,14.2781273 13.992961,14.219693 C14.1456027,14.1620793 15.3678667,13.8518519 16.5899693,13.8518519 C18.9757021,13.8518519 19.5294118,15.1122944 19.5294118,17.2274218 L19.5294118,21.4369947 C19.5294118,21.6311741 19.3577101,21.8058206 19.1666253,21.8058206 L18.4791724,21.8058206 C18.3457523,21.8058206 18.2496446,21.7472221 18.1548291,21.5346589 L17.9253012,21.0097343 C17.4865978,21.4174618 16.781054,22 15.5962639,22 C14.0698472,22 13.0196078,20.9902015 13.0196078,19.3415643 C13.0196078,17.9639247 14.1273503,16.8976615 16.0743796,16.8976615" id="Fill-9" fill="#FFFFFF"></path>
                    <path d="M21.2514873,20.8741308 L21.7581658,19.8263945 C21.8337064,19.633196 22.0218422,19.5941296 22.1908941,19.6908109 C22.1908941,19.6908109 23.0359945,20.1561614 23.900815,20.1561614 C24.2769276,20.1561614 24.5398088,20.0010446 24.5398088,19.6712776 C24.5398088,19.3219775 24.2769276,19.1092458 23.2809051,18.7015101 C21.8337064,18.1201092 21.1568627,17.3240069 21.1568627,16.1405229 C21.1568627,14.9570388 22.0029173,13.8518519 23.9197399,13.8518519 C25.0285167,13.8518519 25.8365624,14.1806339 26.2316,14.452786 C26.4009699,14.5688364 26.4944812,14.7825529 26.4009699,14.9765721 L25.931187,15.9660369 C25.8365624,16.1405229 25.6306149,16.1600561 25.4803289,16.1014564 C25.4803289,16.1014564 24.6342743,15.6947056 23.9197399,15.6947056 C23.4688818,15.6947056 23.2809051,15.8888889 23.2809051,16.1405229 C23.2809051,16.489823 23.6191679,16.6068583 24.3149364,16.8975587 C25.761976,17.4789596 26.8529412,18.1201092 26.8529412,19.633196 C26.8529412,20.9131972 25.761976,22 23.8640784,22 C22.6229863,22 21.7581658,21.5922643 21.3628102,21.2818665 C21.2514873,21.1845286 21.1757877,21.0292476 21.2514873,20.8741308" id="Fill-11" fill="#FFFFFF"></path>
                    <path d="M28.5748603,20.8741308 L29.0823482,19.8263945 C29.1570957,19.633196 29.3452368,19.5941296 29.5144524,19.6908109 C29.5144524,19.6908109 30.3605306,20.1561614 31.2253752,20.1561614 C31.6014983,20.1561614 31.8643869,20.0010446 31.8643869,19.6712776 C31.8643869,19.3219775 31.6014983,19.1092458 30.605448,18.7015101 C29.1570957,18.1201092 28.4803922,17.3240069 28.4803922,16.1405229 C28.4803922,14.9570388 29.3272656,13.8518519 31.2443007,13.8518519 C32.3531084,13.8518519 33.1611767,14.1806339 33.5562253,14.452786 C33.7256,14.5688364 33.8191139,14.7825529 33.7256,14.9765721 L33.2558039,15.9660369 C33.1611767,16.1405229 32.9542693,16.1600561 32.8039791,16.1014564 C32.8039791,16.1014564 31.9577418,15.6947056 31.2443007,15.6947056 C30.79343,15.6947056 30.605448,15.8888889 30.605448,16.1405229 C30.605448,16.489823 30.9437202,16.6068583 31.6395082,16.8975587 C33.0865883,17.4789596 34.1764706,18.1201092 34.1764706,19.633196 C34.1764706,20.9131972 33.0865883,22 31.1875244,22 C29.9475109,22 29.0823482,21.5922643 28.6872996,21.2818665 C28.5748603,21.1845286 28.5002718,21.0292476 28.5748603,20.8741308" id="Fill-13" fill="#FFFFFF"></path>
                    <path d="M35.8039216,14.4274247 C35.8039216,14.2096722 35.9796413,14.0497628 36.1750138,14.0497628 L36.8975455,14.0497628 C37.0732652,14.0497628 37.1900263,14.1498113 37.2291669,14.2686924 L37.5019949,15.0241844 C37.8339466,14.6463543 38.7318676,13.8518519 40.1179724,13.8518519 C41.2300931,13.8518519 42.0114182,14.2885339 42.6553385,15.0830364 C42.987125,14.7262249 44.0021375,13.8518519 45.40773,13.8518519 C47.9057903,13.8518519 48.8235294,15.7398251 48.8235294,17.8265501 L48.8235294,21.6221699 C48.8235294,21.8210898 48.6676277,22 48.4526023,22 L46.8712901,22 C46.6562647,22 46.5011888,21.8210898 46.5011888,21.6221699 L46.5011888,17.6876593 C46.5011888,16.6530405 46.0123445,15.997597 45.0366377,15.997597 C43.9050292,15.997597 43.397523,16.8331277 43.397523,16.8331277 C43.397523,16.8331277 43.4171759,17.2297904 43.4171759,17.5876108 L43.4171759,21.6221699 C43.4171759,21.8210898 43.241291,22 43.0460836,22 L41.5813674,22 C41.367498,22 41.2114312,21.8210898 41.2114312,21.6221699 L41.2114312,17.6876593 C41.2114312,16.6530405 40.7618926,15.997597 39.766533,15.997597 C38.7909914,15.997597 38.3216348,16.7132377 38.1264274,17.2498001 L38.1264274,21.6221699 C38.1264274,21.8210898 37.9516986,22 37.756326,22 L36.1750138,22 C35.9796413,22 35.8039216,21.8210898 35.8039216,21.6221699 L35.8039216,14.4274247 Z" id="Fill-15" fill="#FFFFFF"></path>
                    <path d="M53.5431494,20.3511986 C54.1548316,20.3511986 54.7460005,19.8264383 54.8613269,19.5941781 L54.8613269,18.52693 C54.8613269,18.52693 54.3459116,18.293685 53.7918926,18.293685 C53.0469551,18.293685 52.5515684,18.7209453 52.5515684,19.3415643 C52.5515684,19.9237742 52.9519804,20.3511986 53.5431494,20.3511986 M53.5058379,16.8976615 C54.2690273,16.8976615 54.8987999,17.1103889 54.8987999,17.1103889 C54.918021,16.1211081 54.6125837,15.7727998 53.9060883,15.7727998 C53.199593,15.7727998 52.2078505,15.9279135 51.7681888,16.0636585 C51.5011937,16.1406409 51.3668077,15.9659944 51.3294962,15.7143654 L51.1574757,14.7053876 C51.0999741,14.4137082 51.252612,14.2781273 51.4244709,14.219693 C51.5771088,14.1620793 52.7993425,13.8518519 54.0202841,13.8518519 C56.4069268,13.8518519 56.9607843,15.1122944 56.9607843,17.2274218 L56.9607843,21.4369947 C56.9607843,21.6311741 56.7890869,21.8058206 56.5980069,21.8058206 L55.9105711,21.8058206 C55.7771542,21.8058206 55.682018,21.7472221 55.5860742,21.5346589 L55.3576827,21.0097343 C54.918021,21.4174618 54.2113641,22 53.0285416,22 C51.5011937,22 50.4509804,20.9902015 50.4509804,19.3415643 C50.4509804,17.9639247 51.5578877,16.8976615 53.5058379,16.8976615" id="Fill-17" fill="#FFFFFF"></path>
                    <g id="Group-21" transform="translate(58.588235, 11.407407)">
                        <mask id="mask-6" fill="white">
                            <use xlink:href="#path-5"></use>
                        </mask>
                        <g id="Clip-20"></g>
                        <path d="M1.10866255,4.62535486 L0.472916912,4.62535486 C0.28589567,4.62535486 0.136215387,4.45024606 0.136215387,4.25461412 L0.136215387,2.94311875 C0.136215387,2.72878426 0.28589567,2.57138495 0.472916912,2.57138495 L1.10866255,2.57138495 L1.10866255,0.4004 C1.10866255,0.204437037 1.27701332,0.0285006944 1.46419278,0.0285006944 L2.99707078,0.00979814815 C3.18409202,0.00979814815 3.3337723,0.184906944 3.3337723,0.380704398 L3.3337723,2.57138495 L4.9794643,2.57138495 C5.18547247,2.57138495 5.3348363,2.72878426 5.3348363,2.94311875 L5.3348363,4.25461412 C5.3348363,4.45024606 5.18547247,4.62535486 4.9794643,4.62535486 L3.3337723,4.62535486 L3.3337723,7.75546597 C3.3337723,8.30346713 3.61398772,8.38208403 3.91382296,8.38208403 C4.231854,8.38208403 4.62504164,8.24438032 4.82994224,8.16659097 C5.03579218,8.08797407 5.18547247,8.18645208 5.24180035,8.38208403 L5.61600106,9.61380394 C5.69036653,9.80943588 5.59622301,10.0052333 5.40920177,10.0830227 C5.31616582,10.141944 4.10116065,10.5926257 3.18409202,10.5926257 C1.74456642,10.5926257 1.10866255,9.65302963 1.10866255,8.06943704 L1.10866255,4.62535486 Z" id="Fill-19" fill="#FFFFFF" mask="url(#mask-6)"></path>
                    </g>
                    <path d="M70.2300717,16.9551735 C70.1744524,16.23704 69.5745242,15.6361059 68.8624065,15.6361059 C68.1138432,15.6361059 67.496009,16.2186558 67.4017255,16.9551735 L70.2300717,16.9551735 Z M68.9191351,13.8518519 C70.8477474,13.8518519 72.4215686,15.3649387 72.4215686,17.4594264 C72.4215686,17.596159 72.4028704,17.847793 72.3840137,17.9845256 C72.365157,18.1775599 72.1965559,18.3131435 72.0279549,18.3131435 L67.2332829,18.3131435 C67.2896946,19.1092458 67.9452421,20.0010446 69.0319584,20.0010446 C69.6122376,20.0010446 70.1546449,19.7689438 70.4918471,19.5161608 C70.6793048,19.4001104 70.8477474,19.361044 70.9795859,19.5161608 L71.7473228,20.4283135 C71.8782105,20.5638971 71.9159239,20.7776136 71.7284661,20.9325663 C71.110632,21.5346495 70.1546449,22 68.9379918,22 C66.6907171,22 65.0980392,20.1561614 65.0980392,17.9259259 C65.0980392,15.733772 66.6907171,13.8518519 68.9191351,13.8518519 L68.9191351,13.8518519 Z" id="Fill-22" fill="#FFFFFF"></path>
                    <path d="M74.1436441,20.8741308 L74.6503227,19.8263945 C74.7258633,19.633196 74.9141581,19.5941296 75.08321,19.6908109 C75.08321,19.6908109 75.9292646,20.1561614 76.7929718,20.1561614 C77.1692435,20.1561614 77.4330789,20.0010446 77.4330789,19.6712776 C77.4330789,19.3219775 77.1692435,19.1092458 76.1730619,18.7015101 C74.7258633,18.1201092 74.0490196,17.3240069 74.0490196,16.1405229 C74.0490196,14.9570388 74.8952332,13.8518519 76.81301,13.8518519 C77.9208326,13.8518519 78.7299916,14.1806339 79.1239159,14.452786 C79.2932858,14.5688364 79.3879103,14.7825529 79.2932858,14.9765721 L78.8235029,15.9660369 C78.7299916,16.1405229 78.5227718,16.1600561 78.3726448,16.1014564 C78.3726448,16.1014564 77.5265902,15.6947056 76.81301,15.6947056 C76.3610387,15.6947056 76.1730619,15.8888889 76.1730619,16.1405229 C76.1730619,16.489823 76.5114838,16.6068583 77.2070933,16.8975587 C78.6541329,17.4789596 79.745098,18.1201092 79.745098,19.633196 C79.745098,20.9131972 78.6541329,22 76.7563943,22 C75.5151432,22 74.6503227,21.5922643 74.2562394,21.2818665 C74.1436441,21.1845286 74.0679445,21.0292476 74.1436441,20.8741308" id="Fill-24" fill="#FFFFFF"></path>
                    <g id="Group-32" transform="translate(80.558824, 13.851852)">
                        <mask id="mask-8" fill="white">
                            <use xlink:href="#path-7"></use>
                        </mask>
                        <g id="Clip-31"></g>
                        <path d="M1.34108765,1.17279649 C1.46661325,1.17279649 1.54471234,1.08452704 1.54471234,0.978965028 C1.54471234,0.863595303 1.46661325,0.785133566 1.34108765,0.785133566 L1.00858658,0.785133566 L1.00858658,1.17279649 L1.34108765,1.17279649 Z M0.794651785,0.662537102 C0.794651785,0.628984385 0.821715826,0.598012647 0.858832225,0.598012647 L1.34108765,0.598012647 C1.55141391,0.598012647 1.75864714,0.723964383 1.75864714,0.978965028 C1.75864714,1.23396567 1.57873571,1.3258485 1.48362494,1.3495935 C1.55141391,1.48225577 1.61946064,1.61853142 1.68750738,1.75067751 C1.71122063,1.79145696 1.67719726,1.84256033 1.62977076,1.84256033 L1.51429752,1.84256033 C1.48697572,1.84256033 1.46352022,1.81520196 1.45321011,1.79507033 L1.26273081,1.37024132 L1.01167962,1.37024132 L1.01167962,1.77803588 C1.01167962,1.81210479 0.984357823,1.84256033 0.947499177,1.84256033 L0.858832225,1.84256033 C0.821715826,1.84256033 0.794651785,1.81210479 0.794651785,1.77803588 L0.794651785,0.662537102 Z M1.21891284,2.24054717 C1.78261815,2.24054717 2.23394324,1.78474642 2.23394324,1.22364176 C2.23394324,0.659439928 1.78261815,0.207510647 1.21891284,0.207510647 C0.658816076,0.207510647 0.20388244,0.659439928 0.20388244,1.22364176 C0.20388244,1.78474642 0.658816076,2.24054717 1.21891284,2.24054717 L1.21891284,2.24054717 Z M1.21891284,0 C1.89113206,0 2.44117647,0.550780746 2.44117647,1.22364176 C2.44117647,1.89727707 1.89113206,2.44444444 1.21891284,2.44444444 C0.546435869,2.44444444 0,1.89727707 0,1.22364176 C0,0.550780746 0.546435869,0 1.21891284,0 L1.21891284,0 Z" id="Fill-30" fill="#FFFFFF" mask="url(#mask-8)"></path>
                    </g>
                </g>
            </g>
        </g>
    </g>
</svg>